<svg width="24" height="20" viewBox="0 0 24 20" fill="none" xmlns="http://www.w3.org/2000/svg">
<path d="M23.5749 0.188809C23.2755 -0.0123214 22.7766 -0.0123214 22.4773 0.188809C21.7788 0.691629 20.9805 1.09389 20.1822 1.39559C18.1865 -0.414572 15.0931 -0.515141 12.9976 1.39559C11.7004 2.40123 11.0019 3.9097 11.0019 5.51873C8.10809 5.3176 5.51365 3.80913 3.81729 1.39559C3.61772 1.09389 3.31836 0.993328 2.91922 0.993328C2.52008 0.993328 2.22072 1.29502 2.12093 1.59671C2.02115 1.69728 1.02329 4.11082 1.12307 7.02719C1.22286 9.5413 2.22072 12.7594 5.9128 15.0723C4.41601 15.7763 2.71965 16.078 1.02329 16.078C0.624144 16.078 0.125215 16.3797 0.0254288 16.7819C-0.0743571 17.1842 0.125215 17.687 0.524358 17.8881C3.01901 19.296 5.71323 20 8.20787 20C10.7025 20 13.0974 19.3966 15.2927 18.0893C19.5835 15.6757 21.9783 11.0498 21.9783 5.51873C21.9783 5.3176 21.9783 5.21703 21.9783 5.0159C22.9762 3.9097 23.6747 2.60236 23.974 1.19446C24.0738 0.792198 23.8743 0.389939 23.5749 0.188809Z" fill="#100A30"/>
</svg>
