<svg width="20" height="20" viewBox="0 0 20 20" fill="none" xmlns="http://www.w3.org/2000/svg">
<path d="M20 8.9C19.7006 4.1 15.908 0.2 11.0176 0H10.5186C9.0215 0 7.62428 0.3 6.32682 1C3.03328 2.6 1.0372 5.9 1.0372 9.5C1.0372 10.8 1.33661 12.2 1.83563 13.4L0.0391518 18.7C-0.0606482 19.1 0.0391518 19.5 0.238762 19.7C0.538172 19.9 0.737782 20 1.0372 20C1.137 20 1.2368 20 1.33661 19.9L6.62623 18.1C7.82388 18.6 9.1213 18.9 10.5186 18.9C14.1115 18.9 17.4051 16.9 19.002 13.7C19.7006 12.4 20 10.9 20 9.4V8.9Z" fill="#100A30"/>
</svg>
